# MagicaVoxel @ Ephtracy

# group
o 

# material
mtllib building_top.mtl
usemtl palette

# normals
vn -1 0 0
vn 1 0 0
vn 0 0 1
vn 0 0 -1
vn 0 -1 0
vn 0 1 0

# texcoords
vt 0.306641 0.5
vt 0.697266 0.5
vt 0.705078 0.5
vt 0.865234 0.5
vt 0.978516 0.5

# verts
v 0 2 0
v 0 2 -4
v 0 2.1 0
v 0 2.1 -4
v 0 2.7 0
v 0 2.7 -4
v 0 2.8 0
v 0 2.8 -4
v 0.1 2.1 -0.1
v 0.1 2.1 -3.9
v 0.1 2.2 -0.1
v 0.1 2.2 -3.9
v 0.1 2.5 -0.1
v 0.1 2.5 -3.9
v 0.1 2.7 -0.1
v 0.1 2.7 -3.9
v 0.2 2.2 -0.2
v 0.2 2.2 -3.8
v 0.2 2.3 -0.2
v 0.2 2.3 -3.8
v 0.2 2.4 -0.2
v 0.2 2.4 -3.8
v 0.2 2.5 -0.2
v 0.2 2.5 -3.8
v 3.8 2.2 -0.2
v 3.8 2.2 -3.8
v 3.8 2.3 -0.2
v 3.8 2.3 -3.8
v 3.8 2.4 -0.2
v 3.8 2.4 -3.8
v 3.8 2.5 -0.2
v 3.8 2.5 -3.8
v 3.9 2.1 -0.1
v 3.9 2.1 -3.9
v 3.9 2.2 -0.1
v 3.9 2.2 -3.9
v 3.9 2.5 -0.1
v 3.9 2.5 -3.9
v 3.9 2.7 -0.1
v 3.9 2.7 -3.9
v 4 2 0
v 4 2 -4
v 4 2.1 0
v 4 2.1 -4
v 4 2.7 0
v 4 2.7 -4
v 4 2.8 0
v 4 2.8 -4
v 0 2 0
v 0 2.1 0
v 0 2.7 0
v 0 2.8 0
v 4 2 0
v 4 2.1 0
v 4 2.7 0
v 4 2.8 0
v 0.1 2.1 -0.1
v 0.1 2.2 -0.1
v 0.1 2.5 -0.1
v 0.1 2.7 -0.1
v 3.9 2.1 -0.1
v 3.9 2.2 -0.1
v 3.9 2.5 -0.1
v 3.9 2.7 -0.1
v 0.2 2.2 -0.2
v 0.2 2.3 -0.2
v 0.2 2.4 -0.2
v 0.2 2.5 -0.2
v 3.8 2.2 -0.2
v 3.8 2.3 -0.2
v 3.8 2.4 -0.2
v 3.8 2.5 -0.2
v 0.2 2.2 -3.8
v 0.2 2.3 -3.8
v 0.2 2.4 -3.8
v 0.2 2.5 -3.8
v 3.8 2.2 -3.8
v 3.8 2.3 -3.8
v 3.8 2.4 -3.8
v 3.8 2.5 -3.8
v 0.1 2.1 -3.9
v 0.1 2.2 -3.9
v 0.1 2.5 -3.9
v 0.1 2.7 -3.9
v 3.9 2.1 -3.9
v 3.9 2.2 -3.9
v 3.9 2.5 -3.9
v 3.9 2.7 -3.9
v 0 2 -4
v 0 2.1 -4
v 0 2.7 -4
v 0 2.8 -4
v 4 2 -4
v 4 2.1 -4
v 4 2.7 -4
v 4 2.8 -4
v 0 2 0
v 4 2 0
v 0.1 2 -0.1
v 3.9 2 -0.1
v 0.1 2 -3.9
v 3.9 2 -3.9
v 0 2 -4
v 4 2 -4
v 0.1 2.5 -0.1
v 3.9 2.5 -0.1
v 0.2 2.5 -0.2
v 3.8 2.5 -0.2
v 0.2 2.5 -3.8
v 3.8 2.5 -3.8
v 0.1 2.5 -3.9
v 3.9 2.5 -3.9
v 0 2.7 0
v 4 2.7 0
v 0.1 2.7 -0.1
v 3.9 2.7 -0.1
v 0.1 2.7 -3.9
v 3.9 2.7 -3.9
v 0 2.7 -4
v 4 2.7 -4
v 0 2.1 0
v 4 2.1 0
v 0.1 2.1 -0.1
v 3.9 2.1 -0.1
v 0.1 2.1 -3.9
v 3.9 2.1 -3.9
v 0 2.1 -4
v 4 2.1 -4
v 0.1 2.2 -0.1
v 3.9 2.2 -0.1
v 0.2 2.2 -0.2
v 3.8 2.2 -0.2
v 0.2 2.2 -3.8
v 3.8 2.2 -3.8
v 0.1 2.2 -3.9
v 3.9 2.2 -3.9
v 0 2.8 0
v 4 2.8 0
v 0.1 2.8 -0.1
v 3.9 2.8 -0.1
v 0.1 2.8 -3.9
v 3.9 2.8 -3.9
v 0 2.8 -4
v 4 2.8 -4

# faces
f 3/4/1 2/4/1 1/4/1
f 4/4/1 2/4/1 3/4/1
f 7/3/1 6/3/1 5/3/1
f 8/3/1 6/3/1 7/3/1
f 11/4/1 10/4/1 9/4/1
f 12/4/1 10/4/1 11/4/1
f 15/3/1 14/3/1 13/3/1
f 16/3/1 14/3/1 15/3/1
f 19/4/1 18/4/1 17/4/1
f 20/4/1 18/4/1 19/4/1
f 21/5/1 20/5/1 19/5/1
f 22/5/1 20/5/1 21/5/1
f 23/3/1 22/3/1 21/3/1
f 24/3/1 22/3/1 23/3/1
f 25/4/2 26/4/2 27/4/2
f 27/4/2 26/4/2 28/4/2
f 27/5/2 28/5/2 29/5/2
f 29/5/2 28/5/2 30/5/2
f 29/3/2 30/3/2 31/3/2
f 31/3/2 30/3/2 32/3/2
f 33/4/2 34/4/2 35/4/2
f 35/4/2 34/4/2 36/4/2
f 37/3/2 38/3/2 39/3/2
f 39/3/2 38/3/2 40/3/2
f 41/4/2 42/4/2 43/4/2
f 43/4/2 42/4/2 44/4/2
f 45/3/2 46/3/2 47/3/2
f 47/3/2 46/3/2 48/3/2
f 53/4/3 50/4/3 49/4/3
f 54/4/3 50/4/3 53/4/3
f 55/3/3 52/3/3 51/3/3
f 56/3/3 52/3/3 55/3/3
f 61/4/3 58/4/3 57/4/3
f 62/4/3 58/4/3 61/4/3
f 63/3/3 60/3/3 59/3/3
f 64/3/3 60/3/3 63/3/3
f 69/4/3 66/4/3 65/4/3
f 70/5/3 67/5/3 66/5/3
f 70/4/3 66/4/3 69/4/3
f 71/3/3 68/3/3 67/3/3
f 71/5/3 67/5/3 70/5/3
f 72/3/3 68/3/3 71/3/3
f 73/4/4 74/4/4 77/4/4
f 74/5/4 75/5/4 78/5/4
f 77/4/4 74/4/4 78/4/4
f 75/3/4 76/3/4 79/3/4
f 78/5/4 75/5/4 79/5/4
f 79/3/4 76/3/4 80/3/4
f 81/4/4 82/4/4 85/4/4
f 85/4/4 82/4/4 86/4/4
f 83/3/4 84/3/4 87/3/4
f 87/3/4 84/3/4 88/3/4
f 89/4/4 90/4/4 93/4/4
f 93/4/4 90/4/4 94/4/4
f 91/3/4 92/3/4 95/3/4
f 95/3/4 92/3/4 96/3/4
f 99/4/5 98/4/5 97/4/5
f 100/4/5 98/4/5 99/4/5
f 101/4/5 99/4/5 97/4/5
f 101/1/5 100/1/5 99/1/5
f 102/4/5 98/4/5 100/4/5
f 102/1/5 100/1/5 101/1/5
f 103/4/5 101/4/5 97/4/5
f 103/4/5 102/4/5 101/4/5
f 104/4/5 98/4/5 102/4/5
f 104/4/5 102/4/5 103/4/5
f 107/3/5 106/3/5 105/3/5
f 108/3/5 106/3/5 107/3/5
f 109/3/5 107/3/5 105/3/5
f 110/3/5 106/3/5 108/3/5
f 111/3/5 109/3/5 105/3/5
f 111/3/5 110/3/5 109/3/5
f 112/3/5 106/3/5 110/3/5
f 112/3/5 110/3/5 111/3/5
f 115/3/5 114/3/5 113/3/5
f 116/3/5 114/3/5 115/3/5
f 117/3/5 115/3/5 113/3/5
f 118/3/5 114/3/5 116/3/5
f 119/3/5 117/3/5 113/3/5
f 119/3/5 118/3/5 117/3/5
f 120/3/5 114/3/5 118/3/5
f 120/3/5 118/3/5 119/3/5
f 121/4/6 122/4/6 123/4/6
f 123/4/6 122/4/6 124/4/6
f 121/4/6 123/4/6 125/4/6
f 124/4/6 122/4/6 126/4/6
f 121/4/6 125/4/6 127/4/6
f 125/4/6 126/4/6 127/4/6
f 126/4/6 122/4/6 128/4/6
f 127/4/6 126/4/6 128/4/6
f 129/4/6 130/4/6 131/4/6
f 131/4/6 130/4/6 132/4/6
f 129/4/6 131/4/6 133/4/6
f 132/4/6 130/4/6 134/4/6
f 129/4/6 133/4/6 135/4/6
f 133/4/6 134/4/6 135/4/6
f 134/4/6 130/4/6 136/4/6
f 135/4/6 134/4/6 136/4/6
f 137/3/6 138/3/6 139/3/6
f 139/3/6 138/3/6 140/3/6
f 137/3/6 139/3/6 141/3/6
f 139/2/6 140/2/6 141/2/6
f 140/3/6 138/3/6 142/3/6
f 141/2/6 140/2/6 142/2/6
f 137/3/6 141/3/6 143/3/6
f 141/3/6 142/3/6 143/3/6
f 142/3/6 138/3/6 144/3/6
f 143/3/6 142/3/6 144/3/6
